<?xml version="1.0" encoding="UTF-8" standalone="no"?>
<svg
   xmlns:dc="http://purl.org/dc/elements/1.1/"
   xmlns:cc="http://creativecommons.org/ns#"
   xmlns:rdf="http://www.w3.org/1999/02/22-rdf-syntax-ns#"
   xmlns:svg="http://www.w3.org/2000/svg"
   xmlns="http://www.w3.org/2000/svg"
   xmlns:sodipodi="http://sodipodi.sourceforge.net/DTD/sodipodi-0.dtd"
   xmlns:inkscape="http://www.inkscape.org/namespaces/inkscape"
   sodipodi:docname="Icon.svg"
   inkscape:version="1.0beta2 (3287d1b, 2019-12-24)"
   id="svg936"
   version="1.1"
   viewBox="0 0 67.733331 67.733331"
   height="256"
   width="256">
  <defs
     id="defs930" />
  <sodipodi:namedview
     units="px"
     inkscape:window-maximized="0"
     inkscape:window-y="175"
     inkscape:window-x="1334"
     inkscape:window-height="1233"
     inkscape:window-width="1152"
     showgrid="false"
     inkscape:document-rotation="0"
     inkscape:current-layer="layer1"
     inkscape:document-units="mm"
     inkscape:cy="69.024261"
     inkscape:cx="73.715578"
     inkscape:zoom="1.4"
     inkscape:pageshadow="2"
     inkscape:pageopacity="0.0"
     borderopacity="1.0"
     bordercolor="#666666"
     pagecolor="#ffffff"
     id="base" />
  <metadata
     id="metadata933">
    <rdf:RDF>
      <cc:Work
         rdf:about="">
        <dc:format>image/svg+xml</dc:format>
        <dc:type
           rdf:resource="http://purl.org/dc/dcmitype/StillImage" />
        <dc:title></dc:title>
      </cc:Work>
    </rdf:RDF>
  </metadata>
  <g
     transform="translate(-248.65335,-112.53828)"
     id="layer1"
     inkscape:groupmode="layer"
     inkscape:label="Layer 1">
    <g
       transform="matrix(14.256805,0,0,14.256805,-1008.9862,-1616.0901)"
       id="g917">
      <path
         sodipodi:nodetypes="cccccccc"
         inkscape:connector-curvature="0"
         id="path893"
         d="m 89.878777,121.39937 3.98e-4,2.41087 h -1.272822 l 1.989115,1.98216 1.977258,-1.98324 -1.249017,-1e-5 0.0063,-2.40604 z"
         style="fill:#7b83eb;fill-opacity:1;stroke:#646de8;stroke-width:0.281334px;stroke-linecap:butt;stroke-linejoin:miter;stroke-opacity:1" />
      <path
         sodipodi:nodetypes="ccccccccc"
         inkscape:connector-curvature="0"
         id="path891"
         d="m 90.501636,124.13768 c 0,-0.33157 0,-0.66313 0,-0.99471 -0.119316,0 -0.238632,0 -0.357947,0 0,-0.0829 0,-0.16579 0,-0.24868 0.318176,0 0.636348,0 0.954526,0 0,0.0829 0,0.16578 0,0.24868 -0.119311,0 -0.238631,0 -0.357942,0 0,0.33158 0,0.66314 0,0.99471 -0.07958,0 -0.159094,0 -0.238637,0 z"
         style="fill:#ffffff;stroke-width:0.121801" />
    </g>
  </g>
</svg>
